<?xml version="1.0" standalone="no"?>
<!DOCTYPE svg PUBLIC "-//W3C//DTD SVG 20010904//EN"
 "http://www.w3.org/TR/2001/REC-SVG-20010904/DTD/svg10.dtd">
<svg version="1.0" xmlns="http://www.w3.org/2000/svg"
 width="3000.000000pt" height="2046.000000pt" viewBox="0 0 3000.000000 2046.000000"
 preserveAspectRatio="xMidYMid meet">

<g transform="translate(0.000000,2046.000000) scale(0.100000,-0.100000)"
fill="#000000" stroke="none">
<path d="M24221 14418 c-4 -13 -6 -39 -4 -59 6 -44 -4 -52 -66 -53 -42 -1 -46
-3 -49 -28 -3 -24 0 -28 25 -30 15 0 36 0 46 0 15 2 17 -3 11 -20 -11 -37 -51
-100 -89 -141 -38 -41 -39 -45 -25 -67 11 -18 5 -24 83 95 98 148 98 149 142
148 21 -1 41 -7 46 -15 15 -22 9 -91 -10 -134 -22 -48 -54 -74 -93 -74 -30 0
-37 -17 -16 -38 24 -24 69 -14 104 25 45 49 67 119 62 195 -5 70 -29 98 -83
98 -31 0 -32 2 -32 38 0 41 -17 82 -34 82 -5 0 -13 -10 -18 -22z"/>
<path d="M25387 14417 c-27 -21 -28 -24 -18 -67 6 -25 11 -48 11 -52 0 -5 -27
-8 -59 -8 -57 0 -59 -1 -70 -31 l-11 -31 44 6 c24 4 56 4 70 0 26 -6 26 -8 20
-68 -7 -77 11 -136 47 -153 14 -7 64 -15 110 -19 71 -5 89 -3 118 14 53 29 47
37 -26 34 -38 -1 -94 4 -127 10 -55 12 -59 15 -72 53 -16 47 -18 94 -4 129 8
22 16 26 52 26 79 0 88 -7 88 -59 l1 -46 25 43 c24 39 29 42 68 42 40 0 86 21
86 41 0 5 -21 9 -47 9 -27 0 -53 4 -59 8 -6 4 -17 35 -24 68 -13 60 -14 62
-38 51 -24 -11 -25 -17 -6 -91 l6 -26 -65 0 -64 0 -12 43 c-6 23 -12 54 -13
69 l-3 28 -28 -23z"/>
<path d="M26048 14429 c-13 -7 -18 -23 -18 -53 0 -55 -49 -154 -130 -261 -33
-44 -60 -86 -60 -92 0 -25 50 10 85 59 34 47 86 88 113 88 24 0 49 -38 57 -86
4 -27 12 -55 17 -61 15 -18 56 -16 103 6 53 24 75 50 82 97 l6 39 -30 -40
c-16 -22 -48 -50 -71 -63 l-41 -23 -26 86 -26 85 -39 0 c-39 0 -39 0 -35 34 3
18 18 69 35 112 16 43 30 80 30 81 0 7 -37 1 -52 -8z"/>
<path d="M22468 14402 l-26 -27 20 -35 c17 -31 18 -48 13 -150 -7 -132 0 -155
55 -182 75 -38 185 -12 261 61 43 42 50 53 47 82 -4 47 -19 45 -52 -7 -40 -63
-94 -97 -164 -102 -49 -3 -60 -1 -77 18 -18 20 -20 39 -23 185 -4 184 -11 204
-54 157z"/>
<path d="M21387 14400 l-26 -20 20 -45 c17 -38 19 -57 13 -152 -6 -90 -4 -114
9 -140 31 -60 120 -67 225 -18 111 51 151 102 127 161 l-12 29 -17 -35 c-42
-83 -124 -140 -199 -140 -77 0 -100 54 -90 210 6 97 -1 170 -16 170 -5 0 -20
-9 -34 -20z"/>
<path d="M21710 14405 c0 -18 -9 -19 -46 -5 -35 14 -38 9 -20 -31 28 -64 29
-64 85 -27 l51 35 -23 21 c-27 26 -47 28 -47 7z"/>
<path d="M22790 14407 c0 -23 37 -50 57 -42 16 6 15 9 -12 31 -34 27 -45 30
-45 11z"/>
<path d="M22720 14392 c0 -33 27 -60 55 -55 33 7 32 17 -8 47 -40 31 -47 32
-47 8z"/>
<path d="M24692 14393 c-27 -10 -33 -42 -18 -91 8 -26 20 -80 26 -121 10 -71
47 -157 77 -183 11 -9 21 -4 48 22 38 37 55 76 46 103 -6 16 -10 13 -26 -17
-23 -42 -28 -43 -55 -16 -21 21 -29 50 -56 200 -18 101 -22 110 -42 103z"/>
<path d="M24420 14375 c-16 -19 8 -88 52 -152 33 -49 37 -50 68 -25 l23 19
-36 40 c-20 22 -45 61 -56 86 -22 50 -31 56 -51 32z"/>
<path d="M25010 14386 c0 -2 12 -30 26 -61 17 -38 29 -82 32 -126 l5 -69 29
18 c16 9 31 27 34 39 10 37 -26 125 -66 166 -32 31 -60 47 -60 33z"/>
<path d="M23615 14351 c-88 -13 -110 -19 -113 -33 -5 -27 37 -31 130 -13 88
18 183 16 231 -6 37 -17 53 -60 37 -99 -25 -60 -122 -120 -228 -140 -69 -14
-72 -26 -8 -35 49 -8 107 17 208 87 89 63 114 145 62 207 -45 54 -120 62 -319
32z"/>
<path d="M22124 14338 c-5 -7 -8 -23 -8 -37 -1 -18 -9 -27 -35 -35 -18 -7 -50
-26 -71 -44 l-38 -32 -9 52 -8 51 -28 -24 c-24 -20 -27 -28 -19 -49 5 -14 13
-54 17 -90 11 -94 20 -103 39 -39 23 78 50 117 98 139 61 27 68 20 68 -66 0
-41 -2 -74 -5 -74 -2 0 -27 9 -55 20 -27 11 -50 16 -50 11 0 -11 72 -77 91
-83 10 -3 4 -13 -19 -33 -28 -24 -31 -30 -18 -37 9 -5 23 -5 33 1 33 18 155
154 170 190 14 32 14 38 -2 68 -11 20 -31 38 -52 45 -24 9 -39 23 -48 45 -14
34 -38 43 -51 21z m122 -154 c9 -34 -2 -58 -36 -77 l-30 -18 0 69 c0 38 3 71
6 75 11 10 54 -24 60 -49z"/>
<path d="M23223 14339 c-22 -8 -27 -19 -24 -45 1 -6 -23 -24 -54 -38 -30 -15
-64 -39 -75 -53 l-20 -26 0 34 c0 19 -3 44 -6 56 l-6 23 -29 -21 c-16 -11 -27
-24 -25 -28 2 -3 10 -45 16 -91 14 -102 25 -128 36 -85 27 111 82 175 152 175
l32 0 0 -69 c0 -39 -4 -72 -9 -75 -5 -3 -25 1 -45 9 -64 27 -75 19 -30 -24 22
-21 47 -41 55 -44 11 -4 6 -13 -19 -36 -36 -34 -28 -40 21 -15 71 37 177 162
177 210 0 33 -37 73 -75 80 -27 5 -35 11 -35 28 0 33 -12 45 -37 35z m74 -114
c24 -16 37 -57 28 -86 -4 -11 -20 -26 -36 -34 l-29 -16 0 76 c0 41 3 75 8 75
4 0 17 -7 29 -15z"/>
<path d="M12614 13855 c-30 -40 -89 -182 -134 -323 -17 -54 -38 -119 -48 -147
-21 -62 -30 -424 -13 -548 10 -74 15 -84 57 -134 56 -66 110 -94 189 -100 115
-10 197 35 232 125 16 42 18 82 18 382 -1 316 -2 340 -23 414 -32 112 -83 217
-142 291 -70 88 -94 95 -136 40z"/>
<path d="M11507 13751 c-53 -69 -94 -167 -113 -268 -14 -74 -17 -167 -18 -568
-2 -441 -3 -483 -20 -523 -13 -30 -26 -44 -45 -48 -14 -4 -57 -16 -96 -27 -80
-23 -128 -25 -312 -13 -129 9 -134 8 -190 -17 -32 -14 -77 -28 -101 -32 -57
-9 -290 -140 -304 -171 -17 -36 17 -84 82 -116 61 -30 62 -30 560 -73 421 -36
397 -32 405 -64 4 -14 9 -447 13 -961 8 -1271 8 -1249 3 -1645 -3 -192 -5
-444 -5 -560 0 -500 -3 -872 -9 -1185 -5 -271 -3 -353 9 -429 9 -57 14 -154
13 -245 -1 -143 1 -156 30 -250 17 -54 35 -137 41 -185 13 -114 57 -271 82
-293 30 -26 69 -22 116 12 47 36 44 27 77 190 54 261 65 321 99 545 78 505 94
762 77 1255 -9 235 -9 356 -2 405 8 49 7 161 -1 374 -8 232 -8 358 1 525 8
150 8 271 2 376 -13 223 -14 1960 -1 2009 5 21 17 44 25 51 8 7 74 18 146 26
73 7 139 16 148 18 9 3 140 23 291 46 152 22 298 47 326 55 90 27 137 108 114
196 -10 34 -18 43 -57 60 -47 20 -192 49 -247 49 -17 0 -60 9 -96 20 -89 27
-239 48 -400 56 -166 8 -214 25 -229 82 -5 20 -14 165 -20 322 -17 435 -45
588 -136 750 -29 52 -74 137 -100 188 -67 130 -98 143 -158 63z"/>
<path d="M21667 13756 c-91 -40 -161 -84 -201 -125 -27 -28 -28 -33 -24 -108
3 -61 12 -96 40 -163 20 -47 48 -116 63 -153 49 -121 233 -398 290 -436 38
-25 94 -99 159 -209 21 -34 46 -67 56 -72 34 -18 87 -12 118 15 42 36 54 91
41 201 -11 101 -69 397 -97 494 -64 222 -118 382 -144 433 -50 92 -135 157
-208 157 -8 0 -50 -15 -93 -34z"/>
<path d="M23535 13757 c-112 -40 -171 -74 -218 -126 -34 -38 -37 -46 -37 -104
0 -83 19 -147 90 -292 31 -66 63 -138 70 -160 23 -73 42 -99 154 -215 62 -63
138 -151 168 -195 75 -107 97 -126 152 -132 41 -5 48 -3 74 25 38 41 51 91 47
192 -2 72 -16 131 -90 385 -48 165 -96 316 -105 335 -10 19 -23 60 -29 90 -16
79 -70 180 -106 201 -52 30 -76 30 -170 -4z"/>
<path d="M24905 13773 c-67 -28 -145 -84 -171 -122 -35 -54 -47 -137 -40 -270
4 -63 10 -119 14 -125 4 -6 8 -63 9 -126 1 -73 9 -155 24 -225 23 -116 23
-124 31 -816 3 -295 2 -298 -76 -318 -25 -6 -102 -11 -173 -12 -170 0 -191 -8
-220 -79 -28 -69 -30 -159 -4 -216 21 -46 82 -98 138 -118 55 -19 169 -36 248
-36 75 0 143 -18 150 -40 21 -74 38 -175 44 -280 5 -76 19 -164 34 -225 37
-144 77 -345 77 -380 0 -33 -12 -57 -26 -54 -5 2 -40 -7 -79 -19 -38 -12 -120
-33 -182 -46 -85 -19 -129 -34 -180 -65 -111 -65 -193 -139 -255 -232 -123
-184 -150 -277 -152 -539 -1 -96 -6 -215 -11 -263 -8 -85 -9 -89 -39 -105 -37
-20 -180 -22 -617 -6 -228 8 -280 12 -301 26 -23 15 -27 28 -42 140 -9 68 -16
177 -16 243 0 105 3 126 23 165 38 77 58 82 290 85 168 2 215 6 280 24 205 55
381 192 438 342 31 82 40 386 37 1234 l-3 740 -35 70 c-30 59 -44 76 -96 111
-34 23 -96 56 -139 73 l-77 32 -149 -11 c-83 -7 -164 -9 -182 -5 -18 4 -142
10 -277 15 -188 6 -265 4 -329 -6 -47 -7 -88 -11 -93 -8 -4 3 -65 10 -134 15
-91 7 -144 6 -188 -2 -33 -7 -160 -13 -281 -14 -319 -4 -400 -19 -524 -95 -74
-46 -118 -102 -144 -187 -20 -64 -22 -82 -15 -145 5 -40 7 -109 5 -153 -7
-122 -6 -357 2 -595 5 -136 3 -246 -3 -300 -6 -47 -10 -185 -9 -307 2 -260 17
-340 87 -487 73 -155 222 -277 391 -321 46 -12 109 -15 265 -15 113 1 219 1
237 1 37 -1 95 -47 120 -95 21 -41 25 -392 5 -479 -13 -56 -16 -60 -60 -80
-41 -18 -76 -22 -277 -29 -126 -5 -412 -10 -635 -12 -447 -3 -451 -4 -505 -68
-20 -24 -25 -40 -25 -88 0 -86 12 -105 94 -145 59 -29 95 -38 216 -54 199 -28
370 -40 670 -47 140 -4 289 -7 330 -9 89 -2 129 -20 168 -74 27 -38 28 -40 20
-132 -4 -52 -8 -227 -7 -389 0 -162 -1 -315 -2 -340 -3 -76 19 -363 32 -400 7
-21 11 -93 10 -185 -1 -133 3 -171 34 -335 19 -102 41 -223 49 -268 18 -102
46 -149 95 -158 40 -8 74 8 103 46 22 30 31 87 88 542 22 179 52 384 67 455
23 108 27 151 26 273 -1 80 -6 199 -12 265 -6 66 -14 235 -17 375 -6 275 -4
285 46 321 23 17 64 19 495 24 275 4 475 3 483 -3 8 -5 19 -59 29 -133 13
-101 14 -137 4 -192 -22 -133 -9 -386 29 -544 15 -63 16 -87 7 -149 -9 -65 -7
-85 11 -162 35 -143 102 -461 117 -556 18 -120 54 -165 131 -166 24 0 40 9 61
33 50 57 70 147 97 432 49 507 53 615 61 1445 2 256 8 564 13 685 9 247 18
284 90 358 48 51 94 73 175 87 62 11 69 10 121 -13 69 -32 86 -59 97 -152 4
-42 24 -123 44 -181 20 -58 33 -113 30 -123 -3 -10 2 -38 10 -62 9 -24 29
-107 45 -184 34 -169 91 -391 119 -462 12 -29 26 -85 31 -125 14 -93 64 -256
100 -328 15 -30 42 -109 59 -175 17 -66 36 -121 41 -123 6 -2 10 -15 10 -30 0
-34 88 -216 156 -320 30 -45 74 -130 98 -188 25 -58 63 -136 84 -173 22 -36
56 -95 76 -131 20 -36 66 -105 101 -155 36 -49 84 -116 107 -148 44 -61 189
-209 248 -252 53 -39 103 -49 144 -30 69 33 72 92 10 200 -131 231 -304 604
-349 755 -33 112 -52 158 -188 461 -73 161 -80 185 -132 434 -36 173 -61 268
-140 525 -94 307 -246 894 -243 939 5 74 18 79 284 102 126 10 267 26 314 35
47 9 128 17 180 19 108 4 164 21 221 66 75 59 90 127 39 177 -35 35 -100 53
-285 78 -66 9 -151 22 -190 30 -38 7 -155 16 -260 18 -115 3 -217 11 -260 20
-61 13 -75 21 -111 60 -49 54 -62 96 -109 356 -34 185 -55 343 -73 545 l-7 90
180 1 c148 0 208 5 340 27 88 15 226 31 306 36 108 7 158 14 190 28 50 23 125
99 135 138 16 66 -119 173 -221 175 -16 0 -86 10 -155 21 -91 16 -180 22 -325
25 -428 7 -439 9 -466 69 -31 71 -38 170 -40 570 -1 453 -14 683 -58 1064
l-21 174 -41 54 c-52 66 -60 71 -140 78 -47 4 -74 1 -104 -12z m-2421 -1977
c18 -8 45 -29 59 -47 24 -32 26 -42 32 -209 l8 -176 -25 -29 c-23 -26 -35 -30
-129 -41 -144 -18 -252 -17 -333 4 -87 22 -90 29 -81 201 8 144 11 157 60 205
73 74 132 91 353 105 12 0 38 -5 56 -13z m872 3 c109 -15 185 -55 220 -115 53
-90 74 -196 60 -305 l-7 -54 -92 0 c-51 0 -160 -11 -244 -25 -84 -13 -155 -21
-158 -18 -9 9 -24 234 -25 355 0 92 2 105 23 128 36 42 97 52 223 34z m184
-983 c76 -37 80 -41 87 -76 3 -19 7 -98 7 -175 1 -155 -3 -171 -71 -245 -65
-73 -86 -81 -230 -83 -118 -2 -130 0 -159 20 -38 27 -42 50 -51 273 -9 227 -5
234 152 287 84 28 207 27 265 -1z m-1032 -69 c24 -13 41 -35 59 -74 25 -55 25
-57 20 -257 -3 -110 -8 -211 -12 -223 -18 -55 -188 -75 -295 -34 -73 28 -146
85 -191 148 -38 54 -47 103 -64 323 -3 41 -8 90 -11 108 l-5 33 233 -3 c203
-3 237 -5 266 -21z"/>
<path d="M22640 13766 c-122 -47 -199 -88 -237 -125 -41 -39 -43 -43 -43 -98
1 -89 23 -173 68 -254 22 -41 57 -121 77 -179 39 -113 70 -167 175 -300 37
-47 88 -116 113 -155 66 -100 116 -147 161 -148 47 -1 81 25 119 91 28 50 29
56 19 105 -25 120 -193 885 -203 921 -10 37 -81 114 -132 143 -29 16 -73 15
-117 -1z"/>
<path d="M5633 13756 c-63 -13 -128 -71 -143 -127 -30 -111 -43 -266 -47 -584
-5 -404 -13 -1010 -16 -1165 -1 -63 0 -194 2 -290 4 -152 8 -189 33 -284 49
-190 93 -266 202 -355 136 -109 162 -120 329 -141 54 -7 108 -20 125 -30 27
-17 29 -23 36 -100 4 -45 4 -122 0 -172 -9 -111 -16 -121 -162 -221 -114 -77
-327 -275 -461 -429 -96 -110 -193 -265 -220 -351 -11 -37 -23 -98 -27 -135
-3 -37 -14 -132 -25 -212 -12 -89 -21 -229 -23 -360 -3 -144 -10 -243 -21
-300 -11 -57 -16 -136 -16 -240 0 -85 -5 -184 -11 -220 -6 -36 -12 -144 -13
-240 -1 -184 -20 -515 -30 -531 -10 -14 -24 -331 -27 -559 -2 -197 -1 -207 21
-250 55 -106 105 -143 164 -121 37 14 51 48 102 238 64 243 94 390 105 519 6
62 19 182 30 266 11 84 25 196 30 248 6 52 17 133 25 180 8 47 17 105 20 130
3 25 16 124 30 220 13 96 34 267 45 380 11 113 31 263 45 334 14 71 30 177 36
235 12 129 31 207 68 286 58 125 258 356 400 463 42 31 131 86 198 121 136 70
179 109 222 200 26 55 26 61 31 321 4 236 7 269 23 294 38 58 131 70 163 21
25 -39 39 -260 23 -379 -11 -89 -11 -107 4 -164 10 -36 32 -94 50 -131 27 -55
42 -73 92 -106 33 -22 80 -46 105 -53 218 -63 306 -97 338 -130 58 -60 304
-396 321 -437 13 -33 15 -77 13 -255 -1 -118 3 -249 9 -290 10 -74 22 -268 37
-615 5 -99 13 -189 19 -200 6 -13 7 -52 2 -110 -9 -98 -6 -175 17 -420 19
-200 28 -253 54 -309 21 -46 31 -106 50 -301 7 -60 15 -146 20 -191 9 -83 25
-126 107 -280 50 -93 60 -104 96 -104 36 0 84 47 116 113 22 45 59 276 82 512
15 148 7 455 -21 875 -12 168 -25 490 -30 715 -10 429 -15 494 -70 813 -50
286 -69 317 -377 639 -166 173 -239 231 -389 306 -93 46 -214 131 -246 170
-19 24 -53 120 -63 181 -3 21 -3 67 0 102 l7 64 143 0 c108 0 160 5 219 20
269 69 475 306 515 595 21 149 -9 1344 -34 1386 -4 5 -11 99 -16 207 -13 291
-37 383 -114 427 -70 42 -176 30 -240 -26 -36 -32 -59 -89 -69 -174 -9 -72
-57 -247 -73 -265 -10 -11 -40 -14 -136 -14 -197 1 -518 11 -570 19 -26 4
-114 2 -195 -5 -129 -11 -164 -10 -287 5 -99 12 -169 15 -237 10 -154 -11
-146 -16 -202 133 -26 70 -58 165 -71 212 -13 47 -28 101 -34 120 -5 19 -14
75 -20 123 -12 103 -25 135 -66 158 -45 25 -65 28 -122 15z m1768 -1247 c102
-22 163 -116 195 -303 14 -79 15 -116 4 -281 -6 -104 -13 -198 -15 -207 -1 -9
1 -49 5 -88 4 -40 4 -86 -1 -104 -13 -46 -107 -139 -176 -172 -54 -27 -66 -29
-163 -27 -127 3 -231 -10 -359 -44 -121 -31 -174 -31 -286 1 -74 22 -118 27
-245 31 -164 6 -196 12 -273 53 -104 56 -118 115 -124 539 -3 183 -2 348 1
367 12 66 83 125 166 139 138 25 227 27 404 11 263 -24 370 -17 524 35 106 36
197 56 269 60 12 0 45 -4 74 -10z"/>
<path d="M17447 13731 l-42 -40 -6 -108 c-3 -59 -2 -310 3 -558 5 -255 5 -626
0 -855 -13 -616 -8 -1030 17 -1235 28 -240 36 -562 20 -755 -8 -85 -13 -196
-11 -246 2 -66 -1 -102 -12 -129 -13 -31 -16 -92 -16 -379 0 -383 0 -379 81
-593 46 -122 84 -174 173 -241 121 -89 197 -111 414 -117 86 -2 316 -9 511
-16 266 -8 445 -8 715 1 199 6 458 10 576 8 213 -2 216 -2 295 25 203 72 392
269 425 446 6 32 10 288 10 635 0 319 5 901 11 1291 6 391 12 1081 12 1535 l2
825 -34 69 c-59 120 -174 214 -234 190 -18 -6 -64 -106 -108 -229 -52 -149
-96 -218 -162 -256 -41 -24 -47 -24 -317 -27 -151 -1 -336 -3 -410 -4 -74 -1
-167 3 -207 9 -48 7 -111 8 -195 1 -85 -6 -175 -6 -291 3 -132 9 -192 9 -280
-1 -115 -13 -268 -5 -389 21 -45 10 -48 13 -48 43 0 37 -35 167 -56 207 -8 16
-19 64 -24 107 -18 141 -36 189 -95 263 -74 91 -129 128 -208 140 -34 5 -66 9
-70 9 -4 0 -27 -18 -50 -39z m1043 -1299 c0 -14 58 -14 573 -6 807 12 753 14
831 -25 78 -38 138 -103 162 -174 14 -41 16 -73 11 -171 -3 -67 -1 -175 5
-241 9 -96 8 -162 -5 -330 -11 -149 -13 -230 -7 -280 12 -89 12 -227 0 -285
-7 -32 -5 -85 7 -180 13 -116 14 -186 6 -490 -5 -195 -6 -375 -2 -400 5 -36 5
-256 -1 -668 0 -34 -74 -107 -141 -141 -96 -48 -169 -56 -381 -41 -166 12
-369 13 -1273 7 l-140 -1 -108 53 c-118 58 -131 73 -142 157 -4 27 1 159 11
294 13 187 18 439 22 1065 8 1114 8 1107 -2 1305 -7 145 -6 195 8 290 22 147
29 169 71 210 56 54 106 65 313 66 158 2 182 0 182 -14z"/>
<path d="M18563 12056 c-150 -29 -231 -65 -290 -128 -65 -71 -100 -210 -90
-360 3 -50 2 -128 -4 -172 -6 -54 -6 -182 1 -381 14 -397 20 -946 11 -1042
-24 -251 95 -482 316 -611 111 -65 177 -77 351 -62 114 10 164 10 251 0 174
-21 271 10 438 139 101 78 134 113 168 182 38 74 43 113 55 450 l11 317 -23
73 c-22 70 -23 89 -22 334 1 251 22 662 45 846 17 141 -15 240 -107 333 -72
72 -102 79 -329 82 -110 1 -315 4 -455 7 -194 5 -272 3 -327 -7z m520 -502
c67 -23 142 -106 157 -176 6 -30 13 -202 16 -398 3 -206 11 -406 21 -495 16
-153 13 -286 -6 -338 -6 -16 -16 -69 -21 -119 -12 -105 -32 -145 -88 -180 -34
-21 -49 -23 -168 -23 -125 0 -133 1 -189 30 -68 35 -119 95 -135 158 -5 23
-16 62 -24 87 -12 39 -13 107 -1 510 24 806 23 800 91 864 30 28 110 73 154
87 44 13 145 10 193 -7z"/>
<path d="M18870 9150 c0 -6 48 -10 125 -10 77 0 125 4 125 10 0 6 -48 10 -125
10 -77 0 -125 -4 -125 -10z"/>
<path d="M26022 13745 c-29 -8 -65 -21 -81 -30 -46 -23 -99 -92 -109 -142 -14
-62 8 -235 37 -290 12 -24 31 -84 42 -135 12 -52 36 -120 54 -153 18 -33 43
-91 55 -130 30 -93 47 -125 115 -217 45 -62 62 -78 82 -78 34 0 89 56 102 106
18 69 62 377 62 437 0 108 -60 488 -85 537 -44 89 -156 128 -274 95z"/>
<path d="M10183 13725 c-127 -39 -190 -107 -238 -257 -29 -90 -35 -122 -35
-200 -1 -51 -5 -111 -9 -133 -58 -267 -76 -317 -216 -575 -83 -153 -110 -194
-158 -240 -32 -30 -100 -96 -150 -147 -51 -50 -126 -114 -167 -142 -41 -28
-96 -66 -122 -84 -26 -18 -105 -66 -176 -106 -118 -67 -131 -77 -142 -112 -11
-33 -11 -42 3 -63 22 -33 65 -40 179 -31 50 4 163 8 252 10 246 5 303 23 536
171 158 100 230 177 350 379 52 85 216 427 246 510 15 40 100 500 125 667 19
132 2 211 -55 267 -36 35 -153 103 -174 100 -4 0 -26 -6 -49 -14z"/>
<path d="M13430 13420 c-101 -8 -143 -25 -210 -81 -83 -70 -98 -135 -51 -227
24 -47 115 -133 169 -161 82 -42 265 -49 482 -20 122 17 562 100 581 109 34
19 68 71 80 125 11 48 10 60 -4 90 -37 79 -154 128 -327 139 -58 4 -185 14
-283 22 -187 15 -295 16 -437 4z"/>
<path d="M16255 13400 c-81 -16 -139 -19 -305 -18 -195 1 -211 0 -340 -29 -74
-17 -166 -34 -203 -37 -37 -4 -92 -16 -121 -27 -64 -23 -146 -85 -146 -109 0
-21 109 -126 145 -140 73 -28 381 -98 595 -136 113 -20 191 -27 350 -30 246
-6 268 -12 298 -83 40 -93 47 -210 45 -702 -1 -230 -14 -316 -64 -428 -46
-102 -183 -223 -348 -305 -59 -31 -125 -93 -251 -240 -132 -154 -156 -189
-219 -320 -32 -68 -76 -149 -98 -182 -61 -90 -71 -113 -88 -215 -30 -179 -86
-314 -142 -343 -35 -17 -163 -50 -318 -82 -221 -45 -263 -64 -302 -138 -20
-38 -4 -69 54 -103 52 -30 208 -87 298 -108 37 -8 89 -25 116 -36 l49 -21 0
-87 c0 -90 -13 -153 -48 -236 -14 -31 -27 -100 -37 -182 -9 -86 -25 -161 -43
-215 -54 -155 -85 -404 -87 -683 -1 -129 -6 -218 -15 -250 -15 -58 -16 -73
-18 -525 -3 -545 29 -949 84 -1065 16 -34 57 -65 86 -65 23 0 76 154 143 415
152 585 224 1007 245 1429 12 225 19 297 60 571 15 105 31 219 35 255 4 36 11
81 16 100 5 19 25 134 45 255 21 130 42 232 52 250 29 50 73 65 188 65 112 0
231 -25 293 -61 20 -12 64 -49 99 -83 55 -54 66 -70 89 -141 36 -108 43 -327
18 -550 -14 -129 -15 -171 -5 -260 18 -174 78 -369 145 -475 28 -45 96 -104
150 -132 136 -71 412 -120 640 -116 97 2 308 -13 446 -32 186 -25 432 -83 734
-173 83 -25 170 -48 195 -51 24 -4 49 -11 55 -16 6 -5 67 -29 135 -53 149 -53
320 -130 412 -186 37 -23 69 -41 72 -41 2 0 39 -24 82 -53 44 -29 102 -66 129
-82 180 -104 492 -409 562 -550 100 -199 159 -239 240 -163 38 35 39 77 5 154
-17 38 -38 96 -47 129 -30 108 -116 349 -150 420 -62 130 -184 303 -277 391
-59 57 -227 184 -340 256 -81 53 -395 184 -523 219 -44 12 -104 33 -134 46
-29 13 -115 42 -190 64 -75 22 -190 57 -256 79 -137 44 -536 124 -701 140 -60
5 -141 16 -181 24 -51 9 -118 12 -225 9 -168 -6 -320 7 -367 31 -55 29 -59 59
-71 591 -12 500 -20 589 -61 702 -31 82 -66 129 -169 225 -130 121 -183 150
-332 179 -122 23 -190 27 -343 19 -124 -7 -155 12 -146 90 2 15 66 156 161
356 97 203 256 372 473 507 201 124 277 206 368 392 130 267 184 591 159 956
-6 90 -15 252 -19 359 -7 173 -10 200 -29 235 -12 22 -22 44 -22 49 0 23 -118
216 -159 260 -122 129 -375 184 -626 136z"/>
<path d="M3424 12351 c-35 -16 -47 -30 -73 -83 l-32 -64 5 -229 c3 -127 10
-257 16 -290 7 -38 10 -206 9 -450 -1 -232 3 -420 10 -465 6 -41 11 -128 11
-192 0 -77 8 -166 24 -260 39 -228 41 -269 18 -393 -25 -131 -36 -320 -24
-392 7 -40 4 -74 -13 -155 -22 -109 -21 -217 3 -433 17 -153 143 -350 261
-409 120 -60 125 -61 521 -61 l365 0 73 27 c170 62 340 193 390 301 48 102 54
148 50 367 -5 358 -3 661 6 780 9 118 -1 191 -28 215 -19 16 -39 114 -38 185
1 65 21 235 87 745 54 419 49 475 -52 577 -67 67 -140 103 -245 119 -90 14
-111 10 -169 -35 -42 -33 -46 -40 -68 -128 -21 -84 -22 -101 -12 -165 14 -90
2 -159 -31 -184 -40 -31 -112 -39 -348 -39 l-230 0 -13 33 c-11 24 -15 124
-20 407 -6 445 -13 495 -80 567 -93 101 -271 150 -373 104z m888 -1664 c64
-31 133 -89 152 -126 57 -111 87 -596 50 -806 -11 -63 -14 -114 -9 -170 9
-103 9 -123 4 -286 -4 -128 -5 -138 -32 -178 -56 -85 -90 -92 -241 -51 -39 11
-92 22 -118 25 -64 8 -126 63 -163 147 -15 35 -49 89 -76 120 -49 56 -49 57
-55 145 -12 170 39 870 71 988 29 102 95 175 192 211 57 21 160 13 225 -19z"/>
<path d="M10126 11774 c-56 -20 -104 -59 -137 -113 -35 -54 -46 -92 -60 -203
-5 -46 -23 -132 -39 -193 -16 -60 -38 -166 -50 -235 -25 -148 -50 -226 -94
-300 -18 -30 -59 -106 -92 -168 -73 -141 -124 -199 -217 -251 -40 -22 -126
-83 -192 -136 -66 -53 -172 -131 -235 -172 -132 -88 -230 -177 -230 -209 0
-17 13 -27 65 -49 60 -26 70 -27 152 -21 119 10 293 40 378 66 39 12 119 45
178 72 98 46 111 49 133 37 l25 -13 -6 -370 c-4 -204 -7 -389 -7 -411 -1 -22
3 -79 7 -127 6 -61 4 -105 -5 -148 -15 -71 -15 -75 -8 -400 6 -220 4 -256 -14
-355 -18 -96 -20 -129 -13 -255 9 -150 10 -267 6 -381 -2 -36 2 -90 7 -120 6
-30 14 -162 17 -294 7 -323 20 -546 32 -570 16 -29 55 -61 82 -68 44 -11 68 9
105 85 77 161 118 346 116 526 0 79 6 137 24 222 36 169 46 371 56 1145 5 380
13 764 19 855 18 289 23 598 11 695 -19 148 -23 275 -9 325 6 25 36 108 66
184 97 248 104 269 138 401 18 72 51 200 73 285 51 194 66 297 60 414 -8 144
-51 213 -157 251 -54 19 -133 18 -185 -1z"/>
<path d="M12577 11458 c-92 -5 -114 -10 -154 -34 -65 -37 -128 -104 -143 -149
-37 -113 66 -251 234 -312 45 -16 329 -19 541 -4 134 9 180 -1 201 -40 27 -53
34 -163 20 -324 -15 -174 -13 -460 3 -525 15 -64 12 -206 -7 -342 -19 -131
-15 -404 8 -555 9 -63 10 -109 1 -196 -6 -62 -11 -164 -11 -226 0 -107 4 -196
31 -726 7 -126 13 -311 14 -410 2 -157 6 -200 32 -330 17 -82 36 -191 42 -241
6 -50 22 -122 35 -160 13 -38 34 -119 46 -181 13 -61 30 -123 39 -136 9 -13
31 -46 49 -73 32 -48 63 -73 92 -74 12 0 25 35 52 138 41 154 54 250 63 467 4
83 11 175 16 205 21 128 31 791 32 2195 2 1393 3 1493 19 1517 10 15 25 29 35
32 10 3 124 17 253 31 129 14 257 30 283 36 83 19 137 81 137 157 0 91 -39
145 -138 194 -61 30 -66 31 -265 39 -111 5 -306 14 -434 20 -127 6 -332 10
-455 9 -123 -1 -299 0 -393 2 -93 2 -218 0 -278 -4z"/>
<path d="M12326 10786 c-110 -46 -167 -129 -186 -269 -13 -89 -3 -337 29 -732
30 -368 41 -514 51 -711 5 -100 14 -201 19 -225 5 -24 12 -80 16 -124 4 -44
15 -120 25 -170 10 -49 24 -142 30 -205 12 -129 44 -337 60 -390 5 -19 10 -49
10 -66 0 -17 7 -48 15 -67 8 -20 15 -54 15 -75 0 -58 36 -215 74 -322 18 -52
37 -115 41 -140 20 -136 68 -263 113 -303 11 -11 36 -20 54 -20 55 -3 67 35
78 263 8 161 7 237 -10 469 -24 339 -36 603 -50 1096 -7 222 -19 463 -31 580
-32 322 -39 459 -28 592 7 91 6 152 -4 245 -8 67 -12 169 -9 224 7 158 -36
265 -134 336 -57 41 -105 45 -178 14z"/>
<path d="M10835 10782 c-48 -23 -121 -99 -142 -150 -47 -112 -61 -293 -68
-872 -3 -250 -10 -519 -17 -598 -9 -111 -9 -170 0 -265 8 -79 10 -193 6 -322
-4 -117 -2 -249 5 -317 7 -81 7 -145 0 -205 -5 -49 -12 -142 -14 -208 -2 -66
-11 -165 -19 -219 -12 -74 -14 -144 -10 -270 8 -278 11 -295 49 -333 l34 -34
38 20 c56 29 88 67 124 151 111 261 169 512 188 825 6 94 16 231 21 305 25
327 121 1968 117 1995 -3 17 -1 89 3 160 9 153 1 207 -41 258 -62 76 -198 115
-274 79z"/>
</g>
</svg>
